Coordinates
version=1
nRows=60
nColumns=12
inDegrees=yes

Units are S.I. units (second, meters, Newtons, ...)
Angles are in degrees

endheader
time	SC_y	SC_z	SC_x	AC_y	AC_z	AC_x	GH_y	GH_z	GH_yy	EL_x	PS_y
       0.0               -58.9          20.85           17.3          63.68         -11.73         -2.188         -49.18         -1.524         -42.43           44.5          141.4
   0.02511              -58.89          20.85          17.31          63.68         -11.73         -2.189          -49.2         -1.524         -42.41           44.5          141.4
   0.05023              -58.89          20.85          17.31          63.68         -11.73          -2.19         -49.21         -1.524         -42.39           44.5          141.4
   0.07534              -58.88          20.85          17.32          63.67         -11.73         -2.191         -49.23         -1.524         -42.37          44.49          141.3
    0.1005              -58.88          20.85          17.32          63.67         -11.73         -2.192         -49.24         -1.525         -42.35          44.49          141.3
    0.1256              -58.87          20.85          17.32          63.67         -11.73         -2.193         -49.26         -1.525         -42.33          44.48          141.3
    0.1507              -58.87          20.86          17.33          63.67         -11.74         -2.194         -49.28         -1.525          -42.3          44.48          141.3
    0.1758              -58.86          20.86          17.33          63.66         -11.74         -2.195          -49.3         -1.525         -42.28          44.47          141.3
    0.2009              -58.85          20.86          17.34          63.66         -11.74         -2.197         -49.32         -1.525         -42.25          44.46          141.3
     0.226              -58.85          20.86          17.34          63.65         -11.74         -2.198         -49.34         -1.526         -42.22          44.46          141.3
    0.2511              -58.84          20.86          17.35          63.65         -11.74           -2.2         -49.36         -1.526         -42.19          44.45          141.3
    0.2762              -58.83          20.86          17.36          63.64         -11.74         -2.201         -49.39         -1.526         -42.15          44.44          141.3
    0.3014              -58.82          20.86          17.36          63.64         -11.74         -2.203         -49.41         -1.527         -42.12          44.43          141.3
    0.3265              -58.81          20.86          17.37          63.63         -11.75         -2.205         -49.44         -1.527         -42.08          44.42          141.2
    0.3516               -58.8          20.86          17.38          63.63         -11.75         -2.207         -49.48         -1.527         -42.03          44.41          141.2
    0.3767              -58.79          20.86          17.39          63.62         -11.75         -2.209         -49.51         -1.528         -41.99           44.4          141.2
    0.4018              -58.78          20.87           17.4          63.61         -11.75         -2.211         -49.55         -1.528         -41.93          44.39          141.2
    0.4269              -58.76          20.87          17.41          63.61         -11.75         -2.214         -49.59         -1.528         -41.88          44.37          141.2
     0.452              -58.75          20.87          17.42           63.6         -11.76         -2.217         -49.64         -1.529         -41.82          44.36          141.1
    0.4771              -58.73          20.87          17.43          63.59         -11.76          -2.22         -49.68          -1.53         -41.75          44.34          141.1
    0.5023              -58.71          20.87          17.45          63.58         -11.76         -2.223         -49.74          -1.53         -41.68          44.33          141.1
    0.5274               -58.7          20.87          17.46          63.57         -11.77         -2.227          -49.8         -1.531          -41.6          44.31          141.0
    0.5525              -58.67          20.88          17.48          63.56         -11.77         -2.231         -49.86         -1.532         -41.51          44.29          141.0
    0.5776              -58.65          20.88           17.5          63.54         -11.77         -2.236         -49.94         -1.532         -41.41          44.26          141.0
    0.6027              -58.62          20.88          17.52          63.53         -11.78         -2.241         -50.02         -1.533          -41.3          44.24          140.9
    0.6278              -58.59          20.88          17.54          63.51         -11.78         -2.246         -50.11         -1.534         -41.18          44.21          140.9
    0.6529              -58.56          20.89          17.57          63.49         -11.79         -2.253         -50.21         -1.535         -41.05          44.18          140.8
     0.678              -58.52          20.89           17.6          63.47          -11.8          -2.26         -50.32         -1.537         -40.89          44.14          140.8
    0.7032              -58.48           20.9          17.63          63.45          -11.8         -2.268         -50.45         -1.538         -40.72           44.1          140.7
    0.7283              -58.43           20.9          17.67          63.42         -11.81         -2.277          -50.6          -1.54         -40.52          44.05          140.6
    0.7534              -58.38          20.91          17.71          63.39         -11.82         -2.287         -50.76         -1.541          -40.3           44.0          140.5
    0.7785              -58.31          20.91          17.76          63.35         -11.83         -2.299         -50.96         -1.544         -40.04          43.94          140.4
    0.8036              -58.24          20.92          17.82          63.31         -11.85         -2.313         -51.18         -1.546         -39.74          43.87          140.3
    0.8287              -58.16          20.93          17.89          63.26         -11.86         -2.329         -51.43         -1.549          -39.4          43.79          140.2
    0.8538              -58.06          20.94          17.97          63.21         -11.88         -2.348         -51.73         -1.552         -38.99          43.69          140.0
    0.8789              -57.94          20.95          18.06          63.14          -11.9          -2.37         -52.09         -1.556         -38.51          43.58          139.8
    0.9041               -57.8          20.97          18.17          63.06         -11.93         -2.397         -52.51         -1.561         -37.95          43.44          139.6
    0.9292              -57.64          20.99           18.3          62.97         -11.96         -2.428         -53.01         -1.566         -37.27          43.28          139.4
    0.9543              -57.44          21.01          18.46          62.85         -11.99         -2.467         -53.62         -1.573         -36.45          43.08          139.0
    0.9794              -57.19          21.04          18.65          62.71         -12.04         -2.513         -54.37         -1.581         -35.44          42.85          138.6
     1.005              -56.89          21.07          18.89          62.54         -12.09         -2.571         -55.29         -1.592          -34.2          42.55          138.2
      1.03              -56.51          21.11          19.19          62.32         -12.16         -2.643         -56.43         -1.604         -32.66          42.18          137.6
     1.055              -56.04          21.16          19.56          62.05         -12.24         -2.733         -57.88          -1.62         -30.71          41.72          136.8
      1.08              -55.43          21.23          20.04          61.71         -12.35         -2.848         -59.71         -1.641         -28.23          41.13          135.8
     1.105              -54.66          21.31          20.65          61.27         -12.49         -2.996         -62.07         -1.667         -25.07          40.38          134.6
      1.13              -53.66          21.42          21.43          60.71         -12.67         -3.185         -65.08           -1.7          -21.0          39.42          133.0
     1.155               -52.4          21.55          22.43          59.98         -12.89         -3.426         -68.93         -1.743         -15.81          38.18          131.0
      1.18               -50.8          21.72          23.69          59.08         -13.18          -3.73         -73.78         -1.797         -9.277          36.63          128.4
     1.205              -48.86          21.93          25.22          57.97         -13.53           -4.1         -79.68         -1.862          -1.32          34.74          125.3
     1.231              -46.61          22.17          26.99          56.69         -13.93         -4.529         -86.53         -1.938          7.904          32.55          121.7
     1.256              -44.17          22.44          28.92           55.3         -14.37         -4.993         -93.94          -2.02          17.89          30.18          117.8
     1.281              -41.73           22.7          30.84          53.91          -14.8         -5.458         -101.3         -2.102          27.88          27.81          113.9
     1.306              -39.48          22.94          32.61          52.63         -15.21         -5.887         -108.2         -2.178           37.1          25.62          110.4
     1.331              -37.53          23.15          34.14          51.53         -15.56         -6.257         -114.1         -2.244          45.06          23.73          107.2
     1.356              -35.94          23.32           35.4          50.62         -15.84          -6.56         -118.9         -2.297          51.59          22.18          104.7
     1.381              -34.67          23.46           36.4           49.9         -16.07         -6.802         -122.8          -2.34          56.78          20.95          102.7
     1.406              -33.68          23.57          37.18          49.33         -16.25         -6.991         -125.8         -2.373          60.85          19.98          101.1
     1.431               -32.9          23.65          37.79          48.89         -16.38         -7.138         -128.2           -2.4          64.02          19.23          99.85
     1.457               -32.3          23.71          38.27          48.55         -16.49         -7.253         -130.0          -2.42          66.49          18.64          98.89
     1.482              -31.82          23.77          38.65          48.28         -16.58         -7.344         -131.4         -2.436          68.44          18.18          98.13
